HIERARCHY
ROOT joint_0
{
	OFFSET 0.000000 0.000000 0.000000
	CHANNELS 6 Xposition Yposition Zposition Zrotation Yrotation Xrotation 
	JOINT joint_1
	{
		OFFSET 7.745728 2.152245 124.869995
		CHANNELS 3 Zrotation Yrotation Xrotation
		JOINT joint_2
		{
			OFFSET -6.359406 2.617477 113.975952
			CHANNELS 3 Zrotation Yrotation Xrotation
			JOINT joint_3
			{
				OFFSET -8.187927 3.340103 113.713013
				CHANNELS 3 Zrotation Yrotation Xrotation
				JOINT joint_4
				{
					OFFSET 2.859222 5.755905 159.680054
					CHANNELS 3 Zrotation Yrotation Xrotation
					JOINT joint_5
					{
						OFFSET 22.724274 2.598469 88.906982
						CHANNELS 3 Zrotation Yrotation Xrotation
						End Site
						{
							OFFSET 0.000000 0.000000 0.000000
						}
					}
				}
				JOINT joint_6
				{
					OFFSET 2.312134 -31.513222 90.723022
					CHANNELS 3 Zrotation Yrotation Xrotation
					JOINT joint_7
					{
						OFFSET -0.486389 -150.827950 -17.660034
						CHANNELS 3 Zrotation Yrotation Xrotation
						JOINT joint_8
						{
							OFFSET 15.633850 -16.961029 -297.395020
							CHANNELS 3 Zrotation Yrotation Xrotation
							JOINT joint_9
							{
								OFFSET 5.600098 1.609863 -262.782959
								CHANNELS 3 Zrotation Yrotation Xrotation
								End Site
								{
									OFFSET 0.000000 0.000000 0.000000
								}
							}
						}
					}
				}
				JOINT joint_10
				{
					OFFSET 1.012756 37.963039 88.243042
					CHANNELS 3 Zrotation Yrotation Xrotation
					JOINT joint_11
					{
						OFFSET -2.397430 150.471996 -20.492065
						CHANNELS 3 Zrotation Yrotation Xrotation
						JOINT joint_12
						{
							OFFSET -10.575745 12.779427 -297.765015
							CHANNELS 3 Zrotation Yrotation Xrotation
							JOINT joint_13
							{
								OFFSET 196.311081 2.689713 -176.286011
								CHANNELS 3 Zrotation Yrotation Xrotation
								End Site
								{
									OFFSET 0.000000 0.000000 0.000000
								}
							}
						}
					}
				}
			}
		}
	}
	JOINT joint_14
	{
		OFFSET 1.244965 -96.891136 -118.152039
		CHANNELS 3 Zrotation Yrotation Xrotation
		JOINT joint_15
		{
			OFFSET -2.982971 -16.401871 -443.439026
			CHANNELS 3 Zrotation Yrotation Xrotation
			JOINT joint_16
			{
				OFFSET -42.052063 -15.386002 -460.966980
				CHANNELS 3 Zrotation Yrotation Xrotation
				JOINT joint_17
				{
					OFFSET 177.916595 102.818184 -88.655001
					CHANNELS 3 Zrotation Yrotation Xrotation
					End Site
					{
						OFFSET 0.000000 0.000000 0.000000
					}
				}
			}
		}
	}
	JOINT joint_18
	{
		OFFSET 1.788635 96.476997 -118.463074
		CHANNELS 3 Zrotation Yrotation Xrotation
		JOINT joint_19
		{
			OFFSET -9.555542 8.093691 -443.574951
			CHANNELS 3 Zrotation Yrotation Xrotation
			JOINT joint_20
			{
				OFFSET -48.427551 9.415819 -460.500023
				CHANNELS 3 Zrotation Yrotation Xrotation
				JOINT joint_21
				{
					OFFSET 204.978119 20.223980 -87.523996
					CHANNELS 3 Zrotation Yrotation Xrotation
					End Site
					{
						OFFSET 0.000000 0.000000 0.000000
					}
				}
			}
		}
	}
}
MOTION
Frames: 13
Frame Time: 0.016667
-429.988800 -81.256973 1134.181030 -2.832304 0.049835 0.047360 -0.437717 1.088746 -0.164271 -0.401116 -0.191944 0.024641 -0.414475 0.215091 -0.002962 -0.288110 0.459750 1.068752 0.000000 0.000000 0.000000 5.537459 -0.357834 2.395626 -0.292758 0.343872 -2.636246 0.013937 -1.690644 1.006274 0.000000 0.000000 0.000000 -1.652911 -2.018704 -0.945762 -1.095770 -1.944328 2.260043 1.163368 47.179401 -3.256186 0.000000 0.000000 0.000000 -1.445423 -2.465705 0.149028 -1.596677 1.643165 -0.610823 -1.514865 0.948326 -1.302744 0.000000 0.000000 0.000000 0.486364 -0.723634 0.107977 0.512332 0.345568 -0.180732 0.500172 1.182161 0.096856 0.000000 0.000000 0.000000 
-429.885773 -81.258339 1134.144043 -2.845144 0.048285 0.038127 -0.439227 1.043223 -0.179233 -0.402516 -0.172430 0.035862 -0.416299 0.200092 -0.010975 -0.283173 0.469210 1.048139 0.000000 0.000000 0.000000 5.555630 -0.341912 2.420780 -0.293584 0.362050 -2.634475 0.013951 -1.689349 1.007196 0.000000 0.000000 0.000000 -1.546040 -2.002831 -0.909546 -1.120344 -1.943791 2.235362 1.137232 47.201670 -3.256874 0.000000 0.000000 0.000000 -1.465783 -2.479468 0.162441 -1.618592 1.674686 -0.628356 -1.536847 0.934287 -1.305580 0.000000 0.000000 0.000000 0.490962 -0.722441 0.117012 0.517428 0.364202 -0.179592 0.504276 1.164656 0.100335 0.000000 0.000000 0.000000 
-429.768768 -81.258606 1134.081055 -2.859192 0.027081 0.028192 -0.437686 1.001659 -0.193596 -0.400672 -0.145544 0.052510 -0.415296 0.181587 -0.023560 -0.275503 0.464582 1.018699 0.000000 0.000000 0.000000 5.587776 -0.323090 2.448876 -0.295213 0.384826 -2.638260 0.014087 -1.688020 1.015553 0.000000 0.000000 0.000000 -1.388709 -1.995835 -0.863824 -1.158175 -1.959150 2.198749 1.096715 47.249396 -3.256938 0.000000 0.000000 0.000000 -1.493091 -2.467814 0.179317 -1.646177 1.701206 -0.652672 -1.565054 0.918941 -1.310765 0.000000 0.000000 0.000000 0.496496 -0.692724 0.124669 0.522632 0.373095 -0.174027 0.509079 1.145638 0.104262 0.000000 0.000000 0.000000 
-429.491272 -81.179878 1134.095947 -2.890454 0.126526 0.012078 -0.461560 0.906432 -0.198563 -0.426492 -0.120209 0.058180 -0.440380 0.156972 -0.027014 -0.268756 0.421238 0.998369 0.000000 0.000000 0.000000 5.578853 -0.312227 2.513116 -0.300663 0.395787 -2.690420 0.014581 -1.712076 1.039472 0.000000 0.000000 0.000000 -1.158503 -1.924057 -0.831210 -1.223746 -1.922110 2.149167 1.027476 47.192191 -3.286483 0.000000 0.000000 0.000000 -1.496691 -2.580715 0.195663 -1.654747 1.716713 -0.668920 -1.574388 0.915113 -1.313185 0.000000 0.000000 0.000000 0.507157 -0.781907 0.134249 0.535091 0.372125 -0.171487 0.520823 1.130094 0.110811 0.000000 0.000000 0.000000 
-428.985901 -80.915726 1134.260010 -2.947525 0.467188 -0.019235 -0.531712 0.697761 -0.167289 -0.504536 -0.106369 0.030693 -0.513457 0.121234 -0.004918 -0.266102 0.315736 1.003028 0.000000 0.000000 0.000000 5.451658 -0.330703 2.664533 -0.310735 0.365220 -2.859174 0.015613 -1.749449 1.073106 0.000000 0.000000 0.000000 -0.761280 -1.734229 -0.860233 -1.374393 -1.795235 2.113663 0.874294 46.919349 -3.400685 0.000000 0.000000 0.000000 -1.451068 -2.952032 0.211243 -1.624399 1.721355 -0.666959 -1.544773 0.925911 -1.304604 0.000000 0.000000 0.000000 0.526010 -1.120598 0.149525 0.560462 0.361766 -0.176457 0.544475 1.118337 0.122073 0.000000 0.000000 0.000000 
-428.310486 -80.497513 1134.532959 -3.024351 0.994056 -0.063481 -0.637650 0.400814 -0.105823 -0.622856 -0.100812 -0.020571 -0.623404 0.073180 0.038989 -0.266170 0.157853 1.025789 0.000000 0.000000 0.000000 5.225751 -0.374990 2.889209 -0.324062 0.298520 -3.128801 0.017303 -1.788513 1.115708 0.000000 0.000000 0.000000 -0.204059 -1.454197 -0.948614 -1.605866 -1.604701 2.099199 0.641183 46.480090 -3.584703 0.000000 0.000000 0.000000 -1.368027 -3.522713 0.226289 -1.564822 1.716506 -0.652467 -1.486053 0.947824 -1.287901 0.000000 0.000000 0.000000 0.551221 -1.651151 0.168973 0.595702 0.342010 -0.186378 0.577355 1.109696 0.136965 0.000000 0.000000 0.000000 
-427.319580 -80.155342 1134.909058 -3.134107 1.579894 -0.101919 -0.764159 0.124937 -0.091519 -0.757577 -0.093725 -0.054095 -0.751875 0.024319 0.070042 -0.263230 -0.027763 1.040448 0.000000 0.000000 0.000000 5.065878 -0.377384 3.059941 -0.346312 0.282222 -3.329316 0.020551 -1.958138 1.232612 0.000000 0.000000 0.000000 0.135515 -1.102843 -0.958765 -1.692868 -1.310163 1.988444 0.542192 45.982022 -3.660977 0.000000 0.000000 0.000000 -1.268856 -4.132242 0.231312 -1.490097 1.679488 -0.624721 -1.411688 1.014731 -1.289425 0.000000 0.000000 0.000000 0.583625 -2.217811 0.187127 0.638396 0.303063 -0.200022 0.618068 1.124732 0.152861 0.000000 0.000000 0.000000 
-425.918121 -80.068619 1135.402954 -3.294590 2.154215 -0.125491 -0.925580 -0.080324 -0.190450 -0.917244 -0.067744 -0.043069 -0.910122 -0.031877 0.067776 -0.256101 -0.233260 1.042048 0.000000 0.000000 0.000000 5.162821 -0.279452 3.098886 -0.387785 0.397716 -3.372396 0.027206 -2.404688 1.502564 0.000000 0.000000 0.000000 -0.034462 -0.647324 -0.823792 -1.496306 -0.835072 1.737814 0.714141 45.428076 -3.573342 0.000000 0.000000 0.000000 -1.163968 -4.690375 0.227539 -1.406186 1.592018 -0.583496 -1.327246 1.162861 -1.332947 0.000000 0.000000 0.000000 0.626644 -2.732187 0.208588 0.690453 0.240523 -0.223217 0.668076 1.168466 0.169888 0.000000 0.000000 0.000000 
-424.166595 -80.147720 1136.019043 -3.500660 2.761725 -0.142753 -1.128232 -0.251775 -0.373527 -1.111439 -0.028707 -0.008129 -1.104834 -0.101486 0.051878 -0.248615 -0.470109 1.048692 0.000000 0.000000 0.000000 5.451997 -0.106211 3.063847 -0.445270 0.612087 -3.340964 0.038776 -3.076505 1.910338 0.000000 0.000000 0.000000 -0.568587 -0.080581 -0.618233 -1.101193 -0.194180 1.392108 1.074805 44.780861 -3.391943 0.000000 0.000000 0.000000 -1.045658 -5.254136 0.218398 -1.308028 1.462013 -0.528677 -1.227875 1.382437 -1.410387 0.000000 0.000000 0.000000 0.680512 -3.249436 0.235888 0.753203 0.157694 -0.256585 0.728326 1.234526 0.189077 0.000000 0.000000 0.000000 
-422.028687 -80.282417 1136.667969 -3.699755 3.356861 -0.137076 -1.269486 -0.310915 -0.587918 -1.238877 -0.005754 0.041233 -1.236150 -0.137892 0.024362 -0.232817 -0.701943 1.022610 0.000000 0.000000 0.000000 5.559426 0.089664 2.956473 -0.488203 0.824461 -3.171786 0.052606 -3.688035 2.304584 0.000000 0.000000 0.000000 -1.234408 0.395676 -0.255607 -0.437065 0.391507 0.770087 1.667271 44.361333 -2.881291 0.000000 0.000000 0.000000 -0.931070 -5.765500 0.171720 -1.210703 1.302461 -0.459541 -1.128949 1.602710 -1.488477 0.000000 0.000000 0.000000 0.727591 -3.720581 0.230223 0.806524 0.045658 -0.268318 0.783871 1.354445 0.200934 0.000000 0.000000 0.000000 
-419.569702 -80.436119 1137.342041 -3.858060 3.922968 -0.088852 -1.257088 -0.167752 -0.820622 -1.205321 -0.024600 0.116230 -1.213688 -0.101921 -0.030320 -0.198242 -0.913049 0.917207 0.000000 0.000000 0.000000 5.130480 0.286892 2.734229 -0.496011 0.968557 -2.723887 0.064579 -4.100176 2.570306 0.000000 0.000000 0.000000 -1.985427 0.632045 0.450885 0.710796 0.781685 -0.397799 2.669460 44.475272 -1.724976 0.000000 0.000000 0.000000 -0.833050 -6.229509 0.056819 -1.129076 1.162399 -0.366636 -1.043078 1.788814 -1.553327 0.000000 0.000000 0.000000 0.756334 -4.151809 0.153609 0.837979 -0.077265 -0.225617 0.827700 1.593426 0.196022 0.000000 0.000000 0.000000 
-416.804291 -80.650917 1138.076050 -3.993654 4.475877 -0.003743 -1.131170 0.153850 -1.094883 -1.050134 -0.072124 0.225164 -1.076772 -0.016563 -0.116792 -0.147755 -1.125832 0.748554 0.000000 0.000000 0.000000 4.292870 0.507428 2.417611 -0.480319 1.082930 -2.042357 0.075753 -4.419635 2.765090 0.000000 0.000000 0.000000 -2.890050 0.732498 1.455315 2.343677 1.086708 -2.009036 4.088663 44.949699 0.029450 0.000000 0.000000 0.000000 -0.745488 -6.666401 -0.114738 -1.057551 1.037101 -0.249766 -0.964499 1.967016 -1.617265 0.000000 0.000000 0.000000 0.772850 -4.560147 0.020228 0.854676 -0.208222 -0.140143 0.865086 1.940984 0.177616 0.000000 0.000000 0.000000 
-413.325531 -80.766273 1138.634033 -4.102103 4.938464 0.083768 -1.001618 0.520284 -1.305961 -0.895572 -0.126922 0.310554 -0.938087 0.072338 -0.187730 -0.086623 -1.317275 0.535895 0.000000 0.000000 0.000000 3.552422 0.699246 2.178843 -0.454753 1.180148 -1.514687 0.082501 -4.447179 2.889859 0.000000 0.000000 0.000000 -3.479238 0.812847 2.243816 3.766268 1.324797 -3.282417 5.324207 45.274263 1.650584 0.000000 0.000000 0.000000 -0.663649 -6.859470 -0.297604 -0.973595 0.739721 -0.153979 -0.882573 2.083927 -1.644047 0.000000 0.000000 0.000000 0.776492 -4.751127 -0.112612 0.853037 -0.459205 -0.066583 0.883253 2.197959 0.159944 0.000000 0.000000 0.000000 
